#define A_FixedMedium_width 5
#define A_FixedMedium_height 7
static unsigned char A_FixedMedium_bits[] = {
  0x06, 
  0x09, 
  0x09, 
  0x0f, 
  0x09, 
  0x09, 
  0x00
};
