#define asciitilde_FixedMedium_width 5
#define asciitilde_FixedMedium_height 7
static unsigned char asciitilde_FixedMedium_bits[] = {
  0x0a, 
  0x05, 
  0x00, 
  0x00, 
  0x00, 
  0x00, 
  0x00
};
