#define asciicircum_FixedMedium_width 5
#define asciicircum_FixedMedium_height 7
static unsigned char asciicircum_FixedMedium_bits[] = {
  0x04, 
  0x0a, 
  0x00, 
  0x00, 
  0x00, 
  0x00, 
  0x00
};
