#define B_FixedMedium_width 5
#define B_FixedMedium_height 7
static unsigned char B_FixedMedium_bits[] = {
  0x07, 
  0x09, 
  0x07, 
  0x09, 
  0x09, 
  0x07, 
  0x00
};
