#define backslash_FixedMedium_width 5
#define backslash_FixedMedium_height 7
static unsigned char backslash_FixedMedium_bits[] = {
  0x00, 
  0x01, 
  0x02, 
  0x04, 
  0x08, 
  0x00, 
  0x00
};
