#define bar_FixedMedium_width 5
#define bar_FixedMedium_height 7
static unsigned char bar_FixedMedium_bits[] = {
  0x04, 
  0x04, 
  0x04, 
  0x04, 
  0x04, 
  0x04, 
  0x00
};
