#define braceright_FixedMedium_width 5
#define braceright_FixedMedium_height 7
static unsigned char braceright_FixedMedium_bits[] = {
  0x02, 
  0x04, 
  0x0c, 
  0x04, 
  0x04, 
  0x02, 
  0x00
};
