#define bracketleft_FixedMedium_width 5
#define bracketleft_FixedMedium_height 7
static unsigned char bracketleft_FixedMedium_bits[] = {
  0x0e, 
  0x02, 
  0x02, 
  0x02, 
  0x02, 
  0x0e, 
  0x00
};
