#define bracketright_FixedMedium_width 5
#define bracketright_FixedMedium_height 7
static unsigned char bracketright_FixedMedium_bits[] = {
  0x0e, 
  0x08, 
  0x08, 
  0x08, 
  0x08, 
  0x0e, 
  0x00
};
