#define C_FixedMedium_width 5
#define C_FixedMedium_height 7
static unsigned char C_FixedMedium_bits[] = {
  0x06, 
  0x09, 
  0x01, 
  0x01, 
  0x09, 
  0x06, 
  0x00
};
