#define colon_FixedMedium_width 5
#define colon_FixedMedium_height 7
static unsigned char colon_FixedMedium_bits[] = {
  0x00, 
  0x06, 
  0x06, 
  0x00, 
  0x06, 
  0x06, 
  0x00
};
