#define d_FixedMedium_width 5
#define d_FixedMedium_height 7
static unsigned char d_FixedMedium_bits[] = {
  0x08, 
  0x08, 
  0x0e, 
  0x09, 
  0x09, 
  0x0e, 
  0x00
};
