#define dollar_FixedMedium_width 5
#define dollar_FixedMedium_height 7
static unsigned char dollar_FixedMedium_bits[] = {
  0x00, 
  0x0e, 
  0x05, 
  0x0e, 
  0x14, 
  0x0e, 
  0x00
};
