#define eight_FixedMedium_width 5
#define eight_FixedMedium_height 7
static unsigned char eight_FixedMedium_bits[] = {
  0x06, 
  0x09, 
  0x06, 
  0x09, 
  0x09, 
  0x06, 
  0x00
};
