#define equal_FixedMedium_width 5
#define equal_FixedMedium_height 7
static unsigned char equal_FixedMedium_bits[] = {
  0x00, 
  0x00, 
  0x0f, 
  0x00, 
  0x0f, 
  0x00, 
  0x00
};
