#define exclam_FixedMedium_width 5
#define exclam_FixedMedium_height 7
static unsigned char exclam_FixedMedium_bits[] = {
  0x04, 
  0x04, 
  0x04, 
  0x04, 
  0x00, 
  0x04, 
  0x00
};
