#define f_FixedMedium_width 5
#define f_FixedMedium_height 7
static unsigned char f_FixedMedium_bits[] = {
  0x04, 
  0x0a, 
  0x02, 
  0x07, 
  0x02, 
  0x02, 
  0x00
};
