#define five_FixedMedium_width 5
#define five_FixedMedium_height 7
static unsigned char five_FixedMedium_bits[] = {
  0x0f, 
  0x01, 
  0x07, 
  0x08, 
  0x09, 
  0x06, 
  0x00
};
