#define g_FixedMedium_width 5
#define g_FixedMedium_height 7
static unsigned char g_FixedMedium_bits[] = {
  0x00, 
  0x00, 
  0x0e, 
  0x09, 
  0x06, 
  0x01, 
  0x0e
};
