#define grave_FixedMedium_width 5
#define grave_FixedMedium_height 7
static unsigned char grave_FixedMedium_bits[] = {
  0x02, 
  0x04, 
  0x00, 
  0x00, 
  0x00, 
  0x00, 
  0x00
};
