#define H_FixedMedium_width 5
#define H_FixedMedium_height 7
static unsigned char H_FixedMedium_bits[] = {
  0x09, 
  0x09, 
  0x0f, 
  0x09, 
  0x09, 
  0x09, 
  0x00
};
