#define I_FixedMedium_width 5
#define I_FixedMedium_height 7
static unsigned char I_FixedMedium_bits[] = {
  0x0e, 
  0x04, 
  0x04, 
  0x04, 
  0x04, 
  0x0e, 
  0x00
};
