#define i_FixedMedium_width 5
#define i_FixedMedium_height 7
static unsigned char i_FixedMedium_bits[] = {
  0x04, 
  0x00, 
  0x06, 
  0x04, 
  0x04, 
  0x0e, 
  0x00
};
