#define j_FixedMedium_width 5
#define j_FixedMedium_height 7
static unsigned char j_FixedMedium_bits[] = {
  0x08, 
  0x00, 
  0x08, 
  0x08, 
  0x08, 
  0x0a, 
  0x04
};
