#define k_FixedMedium_width 5
#define k_FixedMedium_height 7
static unsigned char k_FixedMedium_bits[] = {
  0x01, 
  0x01, 
  0x05, 
  0x03, 
  0x05, 
  0x09, 
  0x00
};
