#define less_FixedMedium_width 5
#define less_FixedMedium_height 7
static unsigned char less_FixedMedium_bits[] = {
  0x00, 
  0x08, 
  0x04, 
  0x02, 
  0x04, 
  0x08, 
  0x00
};
