#define m_FixedMedium_width 5
#define m_FixedMedium_height 7
static unsigned char m_FixedMedium_bits[] = {
  0x00, 
  0x00, 
  0x05, 
  0x0f, 
  0x09, 
  0x09, 
  0x00
};
