#define n_FixedMedium_width 5
#define n_FixedMedium_height 7
static unsigned char n_FixedMedium_bits[] = {
  0x00, 
  0x00, 
  0x07, 
  0x09, 
  0x09, 
  0x09, 
  0x00
};
