#define nine_FixedMedium_width 5
#define nine_FixedMedium_height 7
static unsigned char nine_FixedMedium_bits[] = {
  0x06, 
  0x09, 
  0x09, 
  0x0e, 
  0x08, 
  0x06, 
  0x00
};
