#define numbersign_FixedMedium_width 5
#define numbersign_FixedMedium_height 7
static unsigned char numbersign_FixedMedium_bits[] = {
  0x00, 
  0x0a, 
  0x1f, 
  0x0a, 
  0x1f, 
  0x0a, 
  0x00
};
