#define o_FixedMedium_width 5
#define o_FixedMedium_height 7
static unsigned char o_FixedMedium_bits[] = {
  0x00, 
  0x00, 
  0x06, 
  0x09, 
  0x09, 
  0x06, 
  0x00
};
