#define one_FixedMedium_width 5
#define one_FixedMedium_height 7
static unsigned char one_FixedMedium_bits[] = {
  0x04, 
  0x06, 
  0x04, 
  0x04, 
  0x04, 
  0x0e, 
  0x00
};
