#define p_FixedMedium_width 5
#define p_FixedMedium_height 7
static unsigned char p_FixedMedium_bits[] = {
  0x00, 
  0x00, 
  0x07, 
  0x09, 
  0x09, 
  0x07, 
  0x01
};
