#define parenleft_FixedMedium_width 5
#define parenleft_FixedMedium_height 7
static unsigned char parenleft_FixedMedium_bits[] = {
  0x04, 
  0x02, 
  0x02, 
  0x02, 
  0x02, 
  0x04, 
  0x00
};
