#define parenright_FixedMedium_width 5
#define parenright_FixedMedium_height 7
static unsigned char parenright_FixedMedium_bits[] = {
  0x02, 
  0x04, 
  0x04, 
  0x04, 
  0x04, 
  0x02, 
  0x00
};
