#define percent_FixedMedium_width 5
#define percent_FixedMedium_height 7
static unsigned char percent_FixedMedium_bits[] = {
  0x01, 
  0x09, 
  0x04, 
  0x02, 
  0x09, 
  0x08, 
  0x00
};
