#define plus_FixedMedium_width 5
#define plus_FixedMedium_height 7
static unsigned char plus_FixedMedium_bits[] = {
  0x00, 
  0x04, 
  0x04, 
  0x1f, 
  0x04, 
  0x04, 
  0x00
};
