#define q_FixedMedium_width 5
#define q_FixedMedium_height 7
static unsigned char q_FixedMedium_bits[] = {
  0x00, 
  0x00, 
  0x0e, 
  0x09, 
  0x09, 
  0x0e, 
  0x08
};
