#define question_FixedMedium_width 5
#define question_FixedMedium_height 7
static unsigned char question_FixedMedium_bits[] = {
  0x04, 
  0x0a, 
  0x08, 
  0x04, 
  0x00, 
  0x04, 
  0x00
};
