#define quotesingle_FixedMedium_width 5
#define quotesingle_FixedMedium_height 7
static unsigned char quotesingle_FixedMedium_bits[] = {
  0x04, 
  0x04, 
  0x04, 
  0x00, 
  0x00, 
  0x00, 
  0x00
};
