#define r_FixedMedium_width 5
#define r_FixedMedium_height 7
static unsigned char r_FixedMedium_bits[] = {
  0x00, 
  0x00, 
  0x07, 
  0x09, 
  0x01, 
  0x01, 
  0x00
};
