#define R_FixedMedium_width 5
#define R_FixedMedium_height 7
static unsigned char R_FixedMedium_bits[] = {
  0x07, 
  0x09, 
  0x09, 
  0x07, 
  0x05, 
  0x09, 
  0x00
};
