#define seven_FixedMedium_width 5
#define seven_FixedMedium_height 7
static unsigned char seven_FixedMedium_bits[] = {
  0x0f, 
  0x08, 
  0x04, 
  0x04, 
  0x02, 
  0x02, 
  0x00
};
