#define T_FixedMedium_width 5
#define T_FixedMedium_height 7
static unsigned char T_FixedMedium_bits[] = {
  0x0e, 
  0x04, 
  0x04, 
  0x04, 
  0x04, 
  0x04, 
  0x00
};
