#define t_FixedMedium_width 5
#define t_FixedMedium_height 7
static unsigned char t_FixedMedium_bits[] = {
  0x02, 
  0x02, 
  0x07, 
  0x02, 
  0x02, 
  0x0c, 
  0x00
};
