#define three_FixedMedium_width 5
#define three_FixedMedium_height 7
static unsigned char three_FixedMedium_bits[] = {
  0x0f, 
  0x08, 
  0x06, 
  0x08, 
  0x09, 
  0x06, 
  0x00
};
