#define two_FixedMedium_width 5
#define two_FixedMedium_height 7
static unsigned char two_FixedMedium_bits[] = {
  0x06, 
  0x09, 
  0x08, 
  0x04, 
  0x02, 
  0x0f, 
  0x00
};
