#define U_FixedMedium_width 5
#define U_FixedMedium_height 7
static unsigned char U_FixedMedium_bits[] = {
  0x09, 
  0x09, 
  0x09, 
  0x09, 
  0x09, 
  0x06, 
  0x00
};
