#define u_FixedMedium_width 5
#define u_FixedMedium_height 7
static unsigned char u_FixedMedium_bits[] = {
  0x00, 
  0x00, 
  0x09, 
  0x09, 
  0x09, 
  0x0e, 
  0x00
};
