#define V_FixedMedium_width 5
#define V_FixedMedium_height 7
static unsigned char V_FixedMedium_bits[] = {
  0x09, 
  0x09, 
  0x09, 
  0x09, 
  0x06, 
  0x06, 
  0x00
};
