#define v_FixedMedium_width 5
#define v_FixedMedium_height 7
static unsigned char v_FixedMedium_bits[] = {
  0x00, 
  0x00, 
  0x0a, 
  0x0a, 
  0x0a, 
  0x04, 
  0x00
};
