#define w_FixedMedium_width 5
#define w_FixedMedium_height 7
static unsigned char w_FixedMedium_bits[] = {
  0x00, 
  0x00, 
  0x09, 
  0x09, 
  0x0f, 
  0x0f, 
  0x00
};
