#define X_FixedMedium_width 5
#define X_FixedMedium_height 7
static unsigned char X_FixedMedium_bits[] = {
  0x09, 
  0x09, 
  0x06, 
  0x06, 
  0x09, 
  0x09, 
  0x00
};
