#define y_FixedMedium_width 5
#define y_FixedMedium_height 7
static unsigned char y_FixedMedium_bits[] = {
  0x00, 
  0x00, 
  0x09, 
  0x09, 
  0x0a, 
  0x04, 
  0x02
};
