#define Y_FixedMedium_width 5
#define Y_FixedMedium_height 7
static unsigned char Y_FixedMedium_bits[] = {
  0x0a, 
  0x0a, 
  0x0a, 
  0x04, 
  0x04, 
  0x04, 
  0x00
};
