#define Z_FixedMedium_width 5
#define Z_FixedMedium_height 7
static unsigned char Z_FixedMedium_bits[] = {
  0x0f, 
  0x08, 
  0x04, 
  0x02, 
  0x01, 
  0x0f, 
  0x00
};
